<?xml version="1.0" encoding="UTF-8" standalone="no"?>
<!-- Created with Inkscape (http://www.inkscape.org/) -->

<svg
   xmlns:dc="http://purl.org/dc/elements/1.1/"
   xmlns:cc="http://creativecommons.org/ns#"
   xmlns:rdf="http://www.w3.org/1999/02/22-rdf-syntax-ns#"
   xmlns:svg="http://www.w3.org/2000/svg"
   xmlns="http://www.w3.org/2000/svg"
   xmlns:sodipodi="http://sodipodi.sourceforge.net/DTD/sodipodi-0.dtd"
   xmlns:inkscape="http://www.inkscape.org/namespaces/inkscape"
   width="3in"
   height="6in"
   viewBox="0 0 76.200001 152.4"
   version="1.1"
   id="svg8"
   inkscape:version="0.92.2 5c3e80d, 2017-08-06"
   sodipodi:docname="drawing.svg">
  <defs
     id="defs2" />
  <sodipodi:namedview
     id="base"
     pagecolor="#ffffff"
     bordercolor="#666666"
     borderopacity="1.0"
     inkscape:pageopacity="0.0"
     inkscape:pageshadow="2"
     inkscape:zoom="1.58"
     inkscape:cx="102.6707"
     inkscape:cy="200.73557"
     inkscape:document-units="mm"
     inkscape:current-layer="layer1"
     showgrid="false"
     units="in"
     inkscape:window-width="1680"
     inkscape:window-height="1006"
     inkscape:window-x="53"
     inkscape:window-y="0"
     inkscape:window-maximized="0" />
  <metadata
     id="metadata5">
    <rdf:RDF>
      <cc:Work
         rdf:about="">
        <dc:format>image/svg+xml</dc:format>
        <dc:type
           rdf:resource="http://purl.org/dc/dcmitype/StillImage" />
        <dc:title />
      </cc:Work>
    </rdf:RDF>
  </metadata>
  <g
     inkscape:label="Layer 1"
     inkscape:groupmode="layer"
     id="layer1"
     transform="translate(0,-144.59998)"
     style="display:inline">
    <path
       style="fill:#000000;stroke-width:0.13954487"
       d="m 8.528988,279.42892 c -0.5156217,-0.0755 -3.3066605,-2.66229 -4.0910661,-3.79165 l -0.5880359,-0.84664 0.077836,-1.85349 c 0.096436,-2.29719 0.5986823,-5.78779 0.9383505,-6.52153 0.8822819,-1.90582 6.7527095,-8.80288 11.8580835,-13.93185 4.068136,-4.08695 4.997736,-5.04517 5.235968,-5.39712 l 0.248573,-0.36724 -0.934727,-0.99822 c -0.859352,-0.91774 -0.934853,-1.04808 -0.936293,-1.61635 -0.0027,-1.20412 0.83652,-3.62449 3.055385,-8.80818 3.813855,-8.90987 6.020239,-14.5208 6.020239,-15.30975 0,-0.23488 -0.24775,-0.58211 -0.780066,-1.09332 -0.733285,-0.70417 -0.780076,-0.7893 -0.780076,-1.41919 0,-0.36856 0.07453,-0.98251 0.165549,-1.36434 0.159868,-0.67045 0.152567,-0.7059 -0.212751,-1.03364 -0.208063,-0.18666 -0.378291,-0.42291 -0.378291,-0.525 0,-0.18959 0.602825,-1.11972 1.144562,-1.76599 l 0.301439,-0.35962 -0.581165,-1.02505 c -0.773625,-1.3645 -0.758568,-1.62459 0.144524,-2.49718 l 0.725689,-0.70118 -0.394198,-1.10295 c -0.474324,-1.32711 -0.43147,-1.57666 0.429922,-2.50409 l 0.6393,-0.68833 -0.228238,-1.90252 c -0.299954,-2.50042 -0.206703,-5.91403 0.194509,-7.11975 0.781516,-2.34862 2.675574,-4.84313 4.915625,-6.47397 1.104131,-0.80384 3.657359,-2.00134 5.118265,-2.40053 0.975578,-0.26658 1.462731,-0.3092 3.474867,-0.30404 2.605199,0.006 5.249557,0.30027 6.754883,0.74994 1.82847,0.54621 4.188674,1.86902 5.664647,3.17483 0.423927,0.37506 0.770771,0.63183 0.770771,0.57062 0,-0.0612 -0.614214,-1.49799 -1.364918,-3.19282 -1.056813,-2.38591 -1.411288,-3.34789 -1.570305,-4.2616 -0.154929,-0.89019 -0.167106,-1.27743 -0.04957,-1.57634 0.149293,-0.37964 0.18482,-0.39291 0.848428,-0.31683 0.761261,0.0873 2.304592,0.78818 3.62559,1.64656 1.254722,0.81531 2.9468,2.53597 3.910908,3.97694 1.696113,2.53505 2.738817,4.77407 4.164116,8.94168 0.896006,2.61993 1.275048,3.88895 2.628925,8.80164 0.395397,1.43473 0.785256,2.76917 0.866348,2.96543 0.08106,0.19624 0.42179,0.54401 0.757101,0.7728 0.754381,0.51473 1.422167,1.6128 1.70905,2.81028 0.118382,0.4941 0.408396,1.29796 0.644489,1.78635 0.806987,1.66933 1.099864,4.3223 0.642065,5.81596 -0.114142,0.37239 -0.275986,1.26278 -0.359664,1.97867 -0.08365,0.71587 -0.246158,1.44049 -0.361069,1.61025 -0.184238,0.2722 -0.18337,0.45049 0.0072,1.50929 0.174818,0.97041 0.323314,1.35492 0.774431,2.00525 0.615591,0.88745 0.802531,1.65228 0.647862,2.65067 -0.07828,0.50509 -0.225554,0.75329 -0.727219,1.22525 -0.948666,0.89251 -1.6699,1.07427 -3.942919,0.99366 l -1.859103,-0.0659 -0.615574,0.52283 c -1.255061,1.06598 -3.051806,1.83596 -5.908665,2.53209 l -1.843804,0.44928 -0.09428,2.24356 c -0.11466,2.72863 -0.615404,8.16723 -0.892374,9.69219 -0.332359,1.82989 -0.574965,2.42453 -1.965765,4.81817 -1.787503,3.07639 -2.082599,3.60598 -2.082599,3.73762 0,0.0617 0.351353,0.4339 0.780774,0.82703 0.907878,0.83119 1.69979,1.99413 2.281831,3.35096 0.375804,0.87606 0.411671,1.10072 0.405525,2.53997 -0.0054,1.29669 -0.06254,1.71386 -0.319055,2.33402 -0.171767,0.41532 -0.312337,0.82578 -0.312372,0.91214 -4.5e-5,0.0864 0.430736,0.32314 0.95729,0.52617 1.790948,0.69058 1.91833,0.99066 1.937064,4.56333 0.01074,2.05482 -0.02478,2.53605 -0.199635,2.69937 -0.117013,0.10932 -1.138192,0.51817 -2.269298,0.90857 -2.563892,0.88491 -4.793735,1.7653 -6.237168,2.46253 l -1.110323,0.53633 -1.538554,-0.3235 c -3.150515,-0.66243 -9.210396,-2.22075 -10.247965,-2.6353 -1.108113,-0.44273 -1.188821,-0.73447 -0.723238,-2.6144 0.29889,-1.20684 0.710033,-3.98075 0.710033,-4.79047 0,-0.74641 -0.549288,-1.14702 -2.28907,-1.66949 -1.532211,-0.46014 -2.8132,-0.73098 -2.981396,-0.63035 -0.05404,0.0324 -0.06289,0.38985 -0.01977,0.79451 0.133484,1.25199 -0.217179,1.74883 -4.354276,6.16918 l -1.20556,1.28811 -0.69136,2.59478 c -0.81401,3.05512 -1.146101,3.9777 -1.47684,4.10284 -0.133609,0.0506 -1.77471,0.1459 -3.646884,0.21188 -1.953785,0.0689 -4.642635,0.26607 -6.311488,0.46289 -2.619559,0.30895 -3.614962,0.40482 -5.6732524,0.54648 -0.3510303,0.0242 -0.8135896,0.0182 -1.0278974,-0.0131 z m 3.509946,-1.4158 c 3.558589,-0.49149 7.370234,-0.81532 11.697286,-0.99375 l 0.776264,-0.032 0.61696,-2.12808 c 0.646789,-2.23095 0.797119,-3.5659 0.483163,-4.29047 l -0.163598,-0.37757 -2.024598,0.002 c -2.432448,0.002 -9.777175,0.35106 -11.706679,0.5563 -0.759427,0.0808 -1.451297,0.21996 -1.537489,0.30929 -0.143084,0.14829 -0.6568448,3.8695 -0.8631991,6.25218 l -0.084993,0.98095 0.410606,-0.002 c 0.2258311,-9.3e-4 1.3041431,-0.12556 2.3962411,-0.27639 z m -3.4011011,-0.30497 c 0.060569,-0.16038 0.5365658,-4.04752 0.7317636,-5.97629 0.079088,-0.78113 0.055559,-0.89472 -0.2504612,-1.21003 -0.2770506,-0.28547 -0.346897,-0.52521 -0.3888747,-1.33467 -0.1770898,-3.41546 2.7664174,-7.73429 11.3503614,-16.65368 2.626805,-2.72945 3.516048,-3.73342 3.513033,-3.96626 -8.95e-4,-0.0755 -0.125146,-0.29175 -0.275924,-0.48054 l -0.274142,-0.34323 -0.94023,0.89241 c -1.552287,1.47335 -8.030218,8.08176 -9.174199,9.359 -3.8253413,4.27091 -6.6476755,7.94902 -6.9882651,9.10723 -0.1110278,0.37756 -0.3680648,2.05756 -0.5711894,3.73334 -0.3613369,2.98109 -0.3637614,3.05885 -0.1121551,3.60189 0.2477057,0.53465 2.9456189,3.44246 3.1939597,3.44246 0.066831,0 0.1506525,-0.0773 0.1863228,-0.17163 z m 41.1169981,-5.82334 c -0.0091,-2.14104 -0.05252,-2.69222 -0.232809,-2.95861 -0.191977,-0.28361 -0.465297,-0.36827 -2.045328,-0.63352 -1.296153,-0.2176 -1.90193,-0.3818 -2.093997,-0.56759 -0.265778,-0.2571 -0.263621,-0.28375 0.130281,-1.60922 0.735495,-2.47495 0.637404,-4.58295 -0.299515,-6.43663 -0.50061,-0.99043 -1.752755,-2.36121 -2.014059,-2.20489 -0.07721,0.0462 -0.139094,0.59413 -0.137412,1.21756 0.0072,2.61037 -0.99984,4.69259 -2.812135,5.81556 l -0.722664,0.44779 -0.09652,1.348 c -0.05305,0.74141 -0.225366,2.02763 -0.382844,2.85826 -0.157479,0.83064 -0.323189,1.76853 -0.368262,2.08422 l -0.08195,0.57398 1.258363,0.3722 c 1.960701,0.57995 9.309749,2.37124 9.626397,2.34639 0.273418,-0.0215 0.28326,-0.11728 0.272443,-2.6535 z m 1.893601,1.86791 c 1.190655,-0.52415 3.314167,-1.33089 5.351013,-2.03288 l 1.560142,-0.5377 0.03892,-2.11221 c 0.04858,-2.6363 0.03239,-2.66898 -1.173549,-2.37041 -2.200551,0.54482 -6.563112,1.76278 -6.894254,1.92477 l -0.370024,0.18101 0.05475,1.68836 c 0.07963,2.45384 0.194786,3.67914 0.345922,3.67914 0.07309,0 0.56226,-0.18904 1.087097,-0.42008 z m -36.985618,-3.76643 c 4.327177,-0.30924 7.691955,-0.48153 9.404297,-0.48153 1.502687,0 1.589228,0.0159 1.959798,0.35955 l 0.387693,0.35955 0.400139,-0.27964 c 0.512768,-0.35835 3.373715,-3.20003 4.03633,-4.00914 0.278277,-0.33981 0.616567,-0.82576 0.751751,-1.07989 0.23663,-0.44483 0.23476,-0.48773 -0.05001,-1.15099 -0.162668,-0.37892 -0.295767,-0.9309 -0.295767,-1.22663 0,-0.83025 -0.08957,-0.68855 3.73312,-5.90513 1.145081,-1.56261 2.081964,-2.8755 2.081964,-2.91753 0,-0.37104 -1.689439,1.15866 -3.153029,2.85495 -1.111486,1.28819 -2.87129,3.96298 -3.739579,5.68392 -0.428616,0.84951 -0.832852,1.54458 -0.898315,1.54458 -0.244646,0 -0.594898,-0.7251 -0.912315,-1.88868 l -0.327483,-1.20048 -3.675397,-2.9883 c -4.293582,-3.49093 -4.619088,-3.7259 -4.999588,-3.609 -0.287501,0.0883 -2.604806,2.53635 -4.360557,4.60653 -3.437953,4.05362 -5.4465808,7.35115 -5.7456312,9.43248 -0.1368747,0.95261 -0.089198,1.82926 0.1170936,2.15235 0.04366,0.0683 0.6193849,0.0824 1.2990616,0.0317 0.671382,-0.0501 2.465255,-0.17998 3.986399,-0.28869 z m 38.152609,-3.28372 c 3.040686,-0.83244 3.687609,-1.03941 3.687609,-1.17976 0,-0.0636 -0.217735,-0.18518 -0.483861,-0.2702 -0.266127,-0.085 -0.516893,-0.23788 -0.557251,-0.33968 -0.04035,-0.10181 0.10999,-0.56044 0.334112,-1.01918 1.039305,-2.12733 0.86931,-4.34165 -0.491394,-6.40075 -0.705505,-1.0676 -1.577463,-1.85129 -2.886186,-2.59401 -0.94693,-0.53739 -1.276158,-0.64814 -2.235989,-0.75217 -0.619063,-0.0671 -1.165452,-0.0834 -1.214203,-0.0363 -0.230125,0.22262 -0.823502,1.95247 -0.900774,2.62602 -0.21565,1.87972 -0.226162,1.92182 -0.479728,1.92182 -0.551578,0 -1.966024,-1.8489 -3.122789,-4.08198 -0.608604,-1.17488 -0.83253,-1.34776 -1.617669,-1.24894 l -0.357884,0.045 0.47759,1.09836 c 0.262673,0.60411 0.479835,1.21681 0.482573,1.36157 0.0027,0.14477 0.451796,0.66992 0.997917,1.16701 2.400509,2.18504 3.237592,5.22143 2.396054,8.69129 -0.348311,1.43615 -0.31953,1.49787 0.763059,1.63656 1.508421,0.19325 2.776232,0.0412 5.208814,-0.62478 z m -12.423815,-2.69099 c 1.375304,-1.00742 2.195577,-2.70997 2.314523,-4.80397 0.07855,-1.38311 -0.231745,-3.57672 -0.663581,-4.69097 -0.290167,-0.74872 -0.773733,-1.48721 -0.973959,-1.48742 -0.05287,-6e-5 -0.07426,0.8907 -0.0476,1.97946 0.04026,1.6423 -2.77e-4,2.16662 -0.238276,3.07741 -0.364468,1.39516 -1.129549,3.11834 -1.92835,4.34317 l -0.623661,0.95626 0.466576,0.3069 c 0.256617,0.16881 0.504519,0.40265 0.550908,0.51966 0.127203,0.32089 0.527386,0.25072 1.143389,-0.2005 z m -1.982629,-1.63224 c 1.665372,-2.19614 2.872721,-6.97584 2.22868,-8.82303 -0.1979,-0.56759 -0.311871,-0.63059 -1.355971,-0.74937 l -0.744799,-0.0847 -0.157452,1.65778 c -0.286561,3.01697 -1.113803,5.67702 -2.235515,7.18842 -0.269544,0.36319 -0.490079,0.71683 -0.490079,0.78587 0,0.14523 1.482906,0.67069 1.938102,0.68676 0.210478,0.007 0.467417,-0.20065 0.817034,-0.66169 z m -2.817494,-0.75556 c 1.10746,-1.11885 1.990699,-3.45787 2.333042,-6.17846 0.174513,-1.38686 0.03552,-1.77611 -0.36573,-1.02451 -0.135666,0.2541 -1.300027,1.99164 -2.587484,3.8612 -1.287458,1.86957 -2.300745,3.43801 -2.251763,3.48543 0.117783,0.11401 1.494179,0.43416 1.930328,0.44899 0.230233,0.007 0.5406,-0.18752 0.941607,-0.59265 z m -5.431998,-0.94025 c 1.108578,-2.26187 2.866021,-4.65278 5.03661,-6.85206 0.587078,-0.59483 1.032433,-1.11538 0.989677,-1.15677 -0.08195,-0.0793 -1.393743,0.54386 -2.233904,1.06126 l -0.496414,0.30571 0.340304,-0.36524 c 0.187172,-0.20088 0.553725,-0.50589 0.814565,-0.6778 0.508383,-0.33505 0.625504,-0.65579 0.239456,-0.65579 -0.42883,0 -2.685933,1.34196 -4.902329,2.91467 -0.793102,0.56277 -0.982198,0.7747 -1.115145,1.24985 -0.183084,0.65433 -0.07927,2.52808 0.236128,4.26306 0.11144,0.61295 0.202704,1.12989 0.202803,1.14877 1.07e-4,0.0189 0.05994,0.0343 0.133009,0.0343 0.073,0 0.412906,-0.5715 0.75524,-1.26999 z m 23.26157,-7.94942 c 0.153775,-0.20012 0.236209,-0.43181 0.183192,-0.51486 -0.06486,-0.10156 -1.013896,-0.151 -2.898614,-0.151 -1.54122,0 -3.173418,-0.0664 -3.627111,-0.14761 -0.92612,-0.16573 -1.496496,-0.0833 -1.496496,0.21625 0,0.24714 0.163339,0.2822 2.55296,0.54803 1.0531,0.11714 2.32958,0.2672 2.836631,0.33346 1.545479,0.20196 2.127726,0.13439 2.449438,-0.28427 z m -9.332625,-1.41285 c 0.821256,-0.5673 1.351765,-1.12859 1.351765,-1.43022 0,-0.1753 -0.252662,-0.25408 -1.147872,-0.35789 l -0.766852,-0.0889 -0.876869,1.16636 c -0.541836,0.72072 -0.812793,1.19164 -0.709156,1.23252 0.09224,0.0364 0.41491,0.071 0.717029,0.077 0.433125,0.008 0.736013,-0.11813 1.431955,-0.59887 z m 9.902893,0.1606 c 0.427032,-0.27085 0.635471,-0.77355 0.38331,-0.92442 -0.09522,-0.057 -0.820076,-0.14558 -1.61078,-0.19693 -0.790713,-0.0513 -2.604654,-0.21558 -4.030972,-0.36498 -1.426327,-0.14941 -2.65505,-0.23471 -2.730497,-0.18958 -0.127122,0.0761 -0.03677,1.55547 0.104506,1.71015 0.12613,0.13814 2.626465,0.24917 5.023109,0.22305 2.06561,-0.0225 2.561459,-0.0671 2.861324,-0.25729 z m -12.685639,-0.30364 c 0.633566,-0.55408 1.379671,-1.54788 1.253666,-1.66986 -0.125163,-0.12116 -1.216349,-0.31037 -1.830053,-0.31733 -0.606752,-0.007 -0.73664,0.1564 -0.878542,1.10442 -0.204225,1.36435 0.450222,1.76143 1.454929,0.88277 z m -3.954862,-0.19931 c 0.08079,-0.14606 0.146823,-0.31855 0.146823,-0.3833 0,-0.0647 -1.037139,-0.19014 -2.304753,-0.27861 -2.358129,-0.16461 -4.296052,-0.55005 -6.820445,-1.35658 -0.61492,-0.19646 -1.163636,-0.30233 -1.227864,-0.2369 -0.274402,0.27949 -0.549332,1.14294 -0.393589,1.23611 0.22355,0.13375 4.307306,0.68576 6.988123,0.94461 1.248119,0.12051 2.333122,0.24149 2.411128,0.26883 0.437974,0.15355 1.064355,0.0523 1.200577,-0.19416 z m 1.187282,-1.33169 c 0.363833,-0.2744 0.661514,-0.54751 0.661514,-0.60693 0,-0.13475 -0.218074,-0.17663 -3.191204,-0.61282 -3.298599,-0.48395 -6.22858,-0.99916 -7.153805,-1.25795 -0.758291,-0.2121 -0.775799,-0.21051 -1.030072,0.0935 -0.317105,0.37908 -0.476391,0.94253 -0.308516,1.09128 0.196218,0.17389 2.250215,0.79165 3.908931,1.17568 1.578617,0.36548 3.351805,0.56513 5.304803,0.59728 1.115395,0.0183 1.164969,0.006 1.808349,-0.48001 z m 16.660604,-0.016 c 0.743725,-1.02062 1.445795,-2.79886 1.72102,-4.35913 0.226306,-1.28291 0.605285,-5.4407 0.504797,-5.53798 -0.04957,-0.048 -0.284298,-0.0966 -0.521706,-0.10818 -0.237408,-0.0115 -0.599997,-0.15316 -0.805752,-0.31468 -0.540851,-0.42455 -1.22153,-0.69724 -2.271123,-0.90982 -0.507292,-0.10274 -1.104123,-0.3169 -1.326303,-0.47592 -0.222181,-0.159 -0.661685,-0.37713 -0.976669,-0.4847 -0.670354,-0.22896 -1.019738,-0.59373 -1.34944,-1.40891 -0.17208,-0.42548 -0.364441,-0.64138 -0.688068,-0.77227 -0.247062,-0.0999 -0.676366,-0.37477 -0.954016,-0.61075 -0.27765,-0.23599 -0.560221,-0.4284 -0.627929,-0.4276 -0.06773,8.3e-4 -0.418623,0.26533 -0.779807,0.58783 l -0.656693,0.58637 -0.06826,3.22211 c -0.07282,3.43339 -0.162954,3.95402 -0.779503,4.50111 -0.424052,0.37626 -1.017063,0.33175 -2.334733,-0.17528 l -0.80832,-0.31103 -0.583562,0.87349 c -0.63693,0.95337 -0.897536,1.14838 -1.534591,1.14838 -0.407609,0 -1.895882,-0.66582 -2.259957,-1.01105 -0.254854,-0.24167 -0.05207,-0.73594 1.214954,-2.96195 3.66356,-6.43627 3.695097,-6.50182 3.199077,-6.64933 -0.426987,-0.12697 -1.76986,0.2819 -3.399894,1.03515 -0.321112,0.1484 -0.927444,0.3199 -1.347399,0.38113 -1.661794,0.24226 -2.889434,0.57505 -3.335013,0.90404 -0.534195,0.39441 -1.538491,1.83723 -3.10291,4.45775 -1.39131,2.33052 -3.048245,5.4191 -3.048245,5.68199 0,0.23818 0.870043,0.44205 4.396773,1.03027 2.402182,0.40066 2.972163,0.48325 6.306129,0.91374 l 1.554783,0.20076 0.643594,-0.61189 c 0.778063,-0.73973 1.682121,-1.14684 2.797373,-1.25967 0.668645,-0.0677 0.870356,-0.0404 1.023389,0.13806 0.244064,0.28467 0.421503,0.2805 0.76322,-0.0179 0.254719,-0.22246 0.252474,-0.19818 -0.03033,0.32787 -0.272639,0.50712 -0.287741,0.63611 -0.140721,1.20133 0.09059,0.34827 0.173529,0.6332 0.18431,0.6332 0.01074,0 0.588599,-0.21624 1.284057,-0.48053 1.600635,-0.60829 1.809906,-0.60299 0.683765,0.0173 -0.487547,0.26855 -0.886442,0.53754 -0.886442,0.59776 0,0.17715 2.102792,0.43163 5.602333,0.67799 2.555384,0.1799 2.432377,0.1902 2.73786,-0.22902 z M 27.126603,247.2972 c 2.230209,-4.34122 4.682582,-8.37826 7.652187,-12.59685 2.99784,-4.25868 3.428013,-4.89869 3.428013,-5.10011 0,-0.10987 -0.207428,-0.28237 -0.460949,-0.38333 -0.253521,-0.10095 -0.956003,-0.38175 -1.561073,-0.624 -1.791574,-0.71729 -3.533708,-2.00609 -4.304318,-3.18428 -0.434422,-0.66417 -0.652344,-1.98715 -0.475782,-2.88838 0.242695,-1.23881 0.905337,-1.98345 2.42649,-2.72676 0.456421,-0.22304 0.829854,-0.46204 0.829854,-0.53111 0,-0.17006 -1.505746,-0.46263 -1.894666,-0.36814 -0.613131,0.14898 -1.472572,1.02965 -1.99154,2.04077 -0.281416,0.54829 -0.887793,1.9854 -1.347516,3.1936 -0.737221,1.93754 -1.611648,4.07132 -3.207013,7.82583 -0.740191,1.74197 -2.035969,4.73586 -2.40661,5.56047 -1.110323,2.47027 -1.831977,4.58373 -2.123521,6.21897 -0.09082,0.50938 -0.06334,0.55147 1.211482,1.85348 0.717431,0.73275 1.725619,1.81109 2.240418,2.39631 0.514807,0.58522 0.969592,1.06404 1.01063,1.06404 0.04107,0 0.479308,-0.78773 0.973914,-1.75051 z m 18.12083,1.11847 c -0.157112,-1.1096 -0.351675,-1.35276 -1.120665,-1.4006 -0.491198,-0.0306 -0.898368,0.0561 -1.507554,0.32071 -0.930012,0.40401 -1.900114,1.24633 -1.563747,1.35776 0.331312,0.10976 2.406557,0.31622 3.375728,0.33584 l 0.905731,0.0183 z m 12.433236,-10.56866 c 0.129861,-1.23958 0.04312,-1.91829 -0.259587,-2.03073 -0.380635,-0.14139 -0.611914,0.0657 -0.720669,0.64535 -0.06952,0.37058 -0.128268,0.47582 -0.166408,0.29816 -0.281596,-1.31161 -1.470193,-1.85643 -2.173658,-0.99635 -0.22465,0.27466 -0.229454,0.27295 -0.330176,-0.11759 -0.159706,-0.61927 -0.644131,-1.28874 -0.932526,-1.28874 -0.144077,0 -0.362258,0.0971 -0.484836,0.21576 -0.202615,0.19613 -0.222879,0.17198 -0.222879,-0.26566 0,-1.04662 -0.621908,-1.64365 -1.418311,-1.36155 -0.346933,0.12289 -0.355137,0.11058 -0.380393,-0.57094 -0.01423,-0.38309 -0.09894,-0.8815 -0.188309,-1.10759 l -0.162489,-0.41105 -0.278616,0.33126 c -0.534571,0.63558 -1.279764,2.06718 -1.23435,2.37131 0.06692,0.44789 1.135221,1.12698 1.785713,1.1351 l 0.529355,0.007 -0.04849,0.56887 c -0.02666,0.31289 0.02049,0.69378 0.104927,0.84644 0.160932,0.29109 2.584657,1.53654 2.990208,1.53654 0.511695,0 1.673684,0.42869 2.410753,0.88938 0.42731,0.26708 0.842165,0.46469 0.921907,0.43913 0.07971,-0.0256 0.196235,-0.53573 0.25888,-1.13371 z m -20.895157,-2.87058 c 0.244825,-0.12255 0.576889,-0.17184 0.828996,-0.12302 0.301556,0.0584 0.595381,-0.0154 1.038302,-0.26075 0.339749,-0.18818 0.845887,-0.38072 1.124754,-0.42786 0.288198,-0.0487 0.675982,-0.25641 0.898502,-0.48124 0.332628,-0.33609 0.472043,-0.38508 0.927436,-0.32596 0.701945,0.0911 1.00087,-0.28683 0.998132,-1.26208 -0.0045,-1.455 -0.373603,-1.6709 -1.41637,-0.82755 -0.384562,0.31102 -0.742016,0.48054 -1.013287,0.48054 -0.23051,0 -0.623375,0.10811 -0.873022,0.24026 -0.287447,0.15215 -0.761297,0.24027 -1.292083,0.24027 h -0.838175 l -0.731119,0.92641 c -0.402116,0.50952 -0.874687,1.17368 -1.050166,1.47592 l -0.319046,0.54952 h 0.654357 c 0.359897,0 0.838157,-0.0921 1.062789,-0.20446 z m 20.994009,-2.54576 c 0,-1.96505 -0.04393,-2.62861 -0.177296,-2.6762 -0.201953,-0.0721 -6.588664,0.39708 -6.684733,0.49106 -0.03453,0.0338 0.06934,0.45074 0.230698,0.92663 0.25115,0.74057 0.362518,0.89319 0.772873,1.05916 0.263694,0.10666 0.957264,0.65948 1.541283,1.2285 0.811362,0.79054 1.15434,1.03459 1.453936,1.03459 0.215641,0 0.740657,0.12134 1.166705,0.26963 0.426048,0.14831 0.982055,0.27187 1.235576,0.2746 l 0.460958,0.005 z m -11.120532,1.75953 c 0.777347,-0.66069 2.752488,-3.39973 2.752488,-3.81703 0,-0.0827 -0.878113,-0.13488 -2.269307,-0.13488 -2.354514,0 -2.574351,0.0601 -1.965505,0.53736 0.167088,0.13097 0.277409,0.31476 0.245156,0.40844 -0.03829,0.1111 -0.293047,-0.003 -0.7329,-0.32805 -0.370838,-0.2741 -0.848141,-0.50978 -1.060678,-0.52373 l -0.386432,-0.0254 0.04106,1.37295 c 0.07524,2.51795 0.116995,2.6006 1.110931,2.19857 l 0.504609,-0.20409 -0.296412,-0.46426 c -0.377199,-0.5908 -0.380661,-0.77711 -0.0072,-0.38909 0.353348,0.36715 0.498337,0.37219 1.170051,0.0407 0.747778,-0.36906 0.651628,-0.12766 -0.179345,0.45024 -0.761439,0.52954 -0.791357,0.71179 -0.177358,1.08036 0.535457,0.32143 0.658276,0.30158 1.250902,-0.20212 z m 15.630435,-2.24248 c 1.982414,-0.63949 3.85814,-1.64126 3.85814,-2.06053 0,-0.15359 -0.16944,-0.17756 -0.815531,-0.11535 -1.244156,0.11979 -1.79415,-0.1884 -3.026631,-1.69595 -0.238678,-0.29196 -0.669155,-0.19005 -0.917692,0.21723 -0.309724,0.50756 -0.659189,0.71218 -1.693474,0.9916 l -0.850987,0.2299 0.05135,1.35723 c 0.02827,0.74647 0.08517,1.41188 0.12655,1.47869 0.130442,0.21067 2.130732,-0.0359 3.26828,-0.40282 z m -22.778228,-0.73434 c 0.840081,-0.29837 1.827342,-0.87524 1.829794,-1.06916 0.0018,-0.12596 -2.132378,-0.57911 -2.357073,-0.50052 -0.166909,0.0584 -1.344439,1.70477 -1.344439,1.87975 0,0.17378 0.954723,0.0156 1.871718,-0.31007 z m 32.049739,-1.94026 c 0.608774,-0.16367 1.327055,-0.89623 1.462015,-1.49105 0.123848,-0.54582 -0.169771,-1.12715 -0.691566,-1.36925 -0.659627,-0.30604 -3.819124,-0.3798 -4.769821,-0.11136 -0.91959,0.25966 -1.948614,0.87487 -2.066934,1.23574 -0.114374,0.34883 0.674649,1.12372 1.427678,1.40211 1.179445,0.43603 3.608351,0.61082 4.638628,0.33381 z m -16.334383,-0.40285 c 1.911181,-0.15126 3.682044,-0.33343 3.935251,-0.40483 1.412424,-0.39823 1.823451,-1.33079 1.698234,-3.85299 -0.08222,-1.65679 -0.450982,-2.83829 -1.031056,-3.30385 -0.209476,-0.16813 -1.15528,-0.20112 -5.865498,-0.20463 -5.484389,-0.004 -9.284287,-0.20462 -11.856321,-0.62575 -0.468043,-0.0766 -2.043663,-0.17605 -3.501375,-0.22091 -2.513612,-0.0774 -2.703559,-0.065 -3.680559,0.23907 -1.291939,0.40213 -2.275989,1.24851 -2.531631,2.17747 -0.41949,1.52434 0.746097,3.19604 3.152305,4.52107 1.539913,0.84798 4.614337,1.69913 7.057673,1.95391 1.705454,0.17783 8.848067,0.0202 12.622977,-0.27856 z m 9.295416,-1.48085 c -0.0081,-2.18483 0.401391,-3.00836 1.856831,-3.73431 0.322195,-0.1607 1.522405,-0.62473 2.667128,-1.03116 1.144722,-0.40644 2.240221,-0.83977 2.434434,-0.96295 0.676483,-0.42907 0.739136,-1.215 0.235619,-2.95552 -0.533882,-1.84548 -2.344807,-2.48787 -5.003945,-1.77504 -2.512933,0.67364 -4.252088,2.20424 -4.252088,3.74217 0,0.42222 0.101106,0.83911 0.268193,1.10581 0.547803,0.87443 0.748914,3.0088 0.437276,4.64071 -0.102385,0.53616 -0.09981,0.87935 0.0089,1.15789 0.172357,0.44245 0.959178,1.28831 1.198393,1.28831 0.102753,0 0.153095,-0.49704 0.149463,-1.47591 z m 7.155076,-3.29509 c -0.0027,-0.80491 -0.12332,-1.26998 -0.330211,-1.26998 -0.239063,0 -2.079146,0.71832 -2.077849,0.81113 0.0018,0.0987 1.983336,1.06974 2.232706,1.09385 0.11967,0.0116 0.176661,-0.19479 0.175354,-0.635 z m -10.154562,-3.36374 c 0.03346,-0.1699 0.125888,-0.61783 0.205504,-0.99539 0.125441,-0.59489 0.09951,-0.81471 -0.194294,-1.64755 -0.186475,-0.52858 -0.377164,-1.2082 -0.423758,-1.51024 -0.119607,-0.77535 0.15518,-6.23922 0.336251,-6.68597 0.08258,-0.20371 0.388293,-0.62559 0.679399,-0.93751 l 0.529283,-0.5671 -0.324969,-1.73977 c -0.388472,-2.07975 -1.092223,-4.79093 -1.877121,-7.23157 -0.642584,-1.99814 -1.830537,-5.04904 -1.928896,-4.95383 -0.03525,0.0341 0.04617,0.79199 0.180865,1.68416 0.202087,1.33832 0.224713,2.03049 0.129333,3.95615 -0.165083,3.3332 -0.177868,3.19784 0.382424,4.05021 0.793066,1.20649 1.155709,2.15324 1.045764,2.73014 -0.05198,0.27296 -0.413057,1.06809 -0.802308,1.76694 l -0.707715,1.27064 0.243894,0.44555 c 0.870866,1.5909 0.82191,1.34392 0.491976,2.48213 l -0.297225,1.02536 0.287133,0.70516 c 0.418837,1.02863 0.36573,1.63196 -0.280191,3.18279 -0.312031,0.74918 -0.567324,1.48637 -0.567324,1.63821 0,0.29309 0.03203,0.31145 0.932222,0.534 0.317704,0.0786 0.828298,0.35705 1.134649,0.61889 0.661747,0.5656 0.745425,0.58372 0.825104,0.1786 z m -4.972704,-0.64469 c 0.532763,-0.0665 0.999912,-0.1511 1.038105,-0.18808 0.0382,-0.037 -0.0081,-0.18687 -0.102063,-0.3331 -0.145374,-0.22534 -0.06817,-0.4837 0.506792,-1.69523 0.794014,-1.67323 0.931399,-2.38742 0.546156,-2.83924 l -0.262843,-0.30826 -0.826115,1.15596 c -0.454364,0.63579 -0.961066,1.2695 -1.126006,1.40825 l -0.299892,0.25227 0.299632,-0.41834 c 0.858144,-1.1981 2.306963,-4.4061 2.306963,-5.10809 0,-0.3432 -0.49194,-1.13239 -0.705872,-1.13239 -0.06558,0 -0.456001,0.41704 -0.867618,0.92674 -0.996343,1.23378 -4.075061,4.26706 -4.917137,4.84455 -0.563468,0.38644 -0.45448,0.24002 0.675543,-0.90754 1.571039,-1.59542 3.486426,-3.86743 4.331821,-5.13834 1.038051,-1.56054 2.050587,-3.55291 2.050587,-4.03495 0,-1.51579 -2.25101,-3.94837 -6.410375,-6.92742 -0.756447,-0.54179 -1.416745,-1.0499 -1.46733,-1.12913 -0.167203,-0.26189 2.116856,0.92864 3.025253,1.57686 0.490446,0.34998 1.371816,1.06724 1.958608,1.59391 0.586783,0.52668 1.117247,0.9576 1.1788,0.9576 0.06155,0 0.185491,-0.50971 0.275423,-1.13269 0.559057,-3.87289 -0.313705,-8.05753 -2.204211,-10.56854 -0.644928,-0.85661 -2.42573,-2.14068 -4.052086,-2.92182 -0.996128,-0.47844 -1.718524,-0.70842 -3.012343,-0.95898 -1.867951,-0.36175 -4.367589,-0.61762 -6.040601,-0.61835 -4.043721,-0.002 -8.97383,3.14691 -10.987227,7.01713 -0.768767,1.47773 -1.055659,2.82835 -1.055659,4.96975 0,1.92155 0.225814,4.62112 0.400881,4.79261 0.05538,0.0542 0.769644,-0.46272 1.587313,-1.14875 0.81767,-0.68604 1.933441,-1.55425 2.47949,-1.92937 1.223283,-0.84035 2.906084,-1.80432 2.996678,-1.71663 0.03695,0.0358 -0.622186,0.57695 -1.464744,1.20261 -2.692975,1.99972 -6.180089,5.05978 -6.785974,5.95491 -0.196915,0.2909 -0.205978,0.42145 -0.05994,0.86284 0.326651,0.9871 1.697133,2.75635 3.23872,4.18113 1.341799,1.24012 1.433896,1.35437 0.866401,1.07488 -0.920046,-0.45314 -2.168165,-1.41652 -2.851428,-2.2009 -0.326517,-0.37485 -0.663447,-0.67901 -0.748754,-0.67591 -0.226555,0.008 -1.36065,1.03226 -1.36065,1.2286 0,0.37685 1.101439,2.16709 1.648043,2.67869 0.612702,0.57345 1.967635,1.39494 5.11475,3.10108 1.028291,0.55747 1.854558,1.02815 1.836155,1.04597 -0.01843,0.0178 -0.476785,-0.14394 -1.018629,-0.35943 -2.58973,-1.02999 -4.730357,-2.1252 -5.831295,-2.98349 -0.325157,-0.25349 -0.653624,-0.46089 -0.729921,-0.46089 -0.222234,0 -1.019541,0.9478 -1.014593,1.20611 0.0027,0.12952 0.09822,0.35541 0.212751,0.502 0.257815,0.32995 0.257207,0.86696 -0.0018,1.91832 -0.130612,0.52942 -0.154365,0.89493 -0.06826,1.05065 0.145866,0.26383 1.174175,1.08932 1.356973,1.08932 0.06361,0 0.633485,-0.21533 1.266478,-0.47851 l 1.150887,-0.47851 2.258892,0.40558 c 1.242393,0.22306 2.737583,0.49552 3.322631,0.60544 1.398082,0.2627 5.328386,0.72137 8.864456,1.0345 3.058597,0.27085 7.912266,0.35002 9.478528,0.15462 z M 41.752589,208.542 c -2.806186,-0.14015 -5.307881,-0.38939 -5.948031,-0.59259 -0.431631,-0.13702 -0.514423,-0.23455 -0.601134,-0.70809 -0.05529,-0.30205 -0.104237,-1.04385 -0.108737,-1.64845 -0.0045,-0.6046 -0.06603,-1.29465 -0.136803,-1.53344 l -0.128635,-0.43418 0.660503,-0.0792 c 1.095427,-0.13145 6.159253,-0.3424 11.79425,-0.49134 2.925274,-0.0774 5.770377,-0.17718 6.322456,-0.22192 1.19979,-0.0972 1.411297,0.0383 1.560223,0.99962 0.141536,0.91362 -0.02067,2.74155 -0.321032,3.61865 -0.389287,1.13666 -0.424375,1.14337 -6.143328,1.17473 -2.613242,0.0143 -5.74062,-0.0233 -6.949732,-0.0838 z m 6.661436,-0.71718 c -0.0027,-0.0189 -0.125351,-0.37412 -0.272908,-0.78944 -0.211884,-0.59642 -0.337602,-0.7632 -0.598146,-0.79356 -1.045755,-0.12185 -1.334633,-0.37762 -0.453791,-0.40179 0.328467,-0.009 1.203743,-0.34658 2.422106,-0.93412 1.089987,-0.52564 2.161454,-0.94745 2.499584,-0.98402 0.587078,-0.0635 0.582533,-0.0587 -0.568944,0.60038 -0.638414,0.36541 -1.208467,0.71057 -1.266782,0.76703 -0.05833,0.0564 0.104247,0.31268 0.361275,0.56937 0.401525,0.40103 0.4583,0.54086 0.403287,0.99333 -0.03525,0.28964 -0.116807,0.64413 -0.18133,0.78776 -0.112236,0.24983 -0.05332,0.25782 1.359898,0.18458 0.812471,-0.0421 1.588217,-0.11964 1.723884,-0.17229 0.29378,-0.114 0.476551,-0.74225 0.60677,-2.08567 0.119232,-1.22996 -0.0093,-2.05461 -0.331688,-2.12792 -0.130943,-0.0298 -1.291179,-0.004 -2.578297,0.0577 -1.287117,0.0616 -5.308033,0.15708 -8.935368,0.21231 l -6.595159,0.1004 -0.03954,1.73205 -0.03954,1.73204 1.245122,0.15188 c 0.684811,0.0835 1.93123,0.19362 2.769808,0.24463 l 1.524687,0.0928 v -0.71294 c 0,-0.57741 0.06737,-0.77819 0.354573,-1.05618 0.195019,-0.18878 0.354582,-0.39725 0.354582,-0.46326 0,-0.16306 -1.139972,-0.50929 -2.304762,-0.7 -0.526546,-0.0862 -0.957362,-0.20676 -0.957362,-0.26788 0,-0.20228 1.063299,-0.28921 1.740488,-0.14231 0.366419,0.0795 1.362502,0.43027 2.213507,0.77951 l 1.547294,0.63497 -0.0747,0.7973 c -0.119089,1.27133 -0.193319,1.22764 2.085999,1.22764 1.09455,0 1.988006,-0.0154 1.985456,-0.0343 z m -5.32564,-0.59819 c 0.350869,-0.13034 0.299417,-0.97345 -0.06629,-1.08581 -0.33736,-0.10365 -0.985875,0.25464 -0.985875,0.54467 0,0.44061 0.554719,0.72591 1.052134,0.54114 z m 6.790438,-0.20432 c 0.07793,-0.12047 0.09922,-0.38304 0.04724,-0.5835 -0.0739,-0.28515 -0.180355,-0.3645 -0.488925,-0.3645 -0.692282,0 -0.973636,0.57299 -0.504394,1.02722 0.274573,0.26579 0.748476,0.2261 0.946081,-0.0792 z m 13.425642,10.60942 0.479218,-0.38728 -0.245711,-0.94692 c -0.76203,-2.93664 -1.617293,-2.99302 -1.44473,-0.0952 0.11169,1.87548 0.334255,2.13814 1.211223,1.42943 z m 9.133482,-0.50141 c 0.151359,-0.38183 -0.193614,-2.53313 -0.559389,-3.48837 -0.407993,-1.06552 -1.166704,-2.02089 -1.814172,-2.28442 -0.94464,-0.3845 -1.00852,0.10703 -0.354225,2.72586 0.412619,1.65152 0.471533,1.78541 0.8778,1.99488 0.239528,0.1235 0.69468,0.45469 1.011462,0.73597 0.646037,0.57364 0.724669,0.60329 0.838524,0.31608 z m -7.238288,-0.94859 c 0.73094,-0.52945 1.280022,-0.75078 2.229869,-0.89886 0.491887,-0.0767 0.954777,-0.19793 1.028649,-0.26944 0.140337,-0.13585 -0.08329,-1.28398 -0.323385,-1.65997 -0.294031,-0.46053 -3.843405,0.62201 -4.043846,1.23336 -0.116628,0.35569 0.36029,1.92194 0.585218,1.92194 0.03963,0 0.275181,-0.14716 0.523495,-0.32703 z m -0.978691,-2.68077 c 0.382692,-0.40935 1.518737,-0.82135 2.805809,-1.01757 l 1.177334,-0.17949 -0.01494,-0.49271 c -0.02255,-0.74223 -0.142216,-0.93154 -0.589047,-0.93154 -1.058728,0 -3.284688,0.83045 -4.20757,1.56975 l -0.414793,0.33227 0.386558,0.49059 c 0.44514,0.56495 0.522895,0.5857 0.856659,0.2287 z m -0.526385,-2.73752 c 1.105841,-0.54523 2.009049,-0.70757 3.937041,-0.70757 1.103174,0 2.158744,0.0755 2.598131,0.18583 0.901312,0.22633 0.935595,0.12599 0.279118,-0.8167 -0.310189,-0.44544 -0.69188,-0.77607 -1.167018,-1.01091 -0.632608,-0.31269 -0.868683,-0.34845 -2.269298,-0.34379 -1.778109,0.006 -2.684216,0.26575 -3.798207,1.08915 -0.737534,0.54513 -1.039948,1.09107 -1.181967,2.13374 l -0.102627,0.75347 0.583285,-0.50891 c 0.320809,-0.2799 0.825498,-0.62834 1.121542,-0.77431 z m 2.949385,-3.59121 c 0.312032,-0.002 0.795706,-0.0391 1.074841,-0.0839 l 0.507525,-0.0813 -0.324146,-1.42313 c -0.989767,-4.34554 -2.674097,-9.75305 -4.123748,-13.23919 -2.174911,-5.23028 -4.537879,-8.1309 -8.063795,-9.89857 -1.332781,-0.66818 -1.380377,-0.62236 -0.912146,0.87806 0.405399,1.29907 0.932911,2.52257 2.764503,6.4119 3.223788,6.84562 4.566696,10.63453 5.740424,16.19615 0.166792,0.7903 0.363905,1.50766 0.438028,1.59411 0.100211,0.1169 0.41643,0.092 1.232981,-0.0972 0.604015,-0.13993 1.35351,-0.25557 1.665533,-0.25699 z"
       id="path880"
       inkscape:connector-curvature="0" />
  </g>
  <g
     transform="translate(0,-144.59998)"
     id="g884"
     inkscape:groupmode="layer"
     inkscape:label="Layer 1 copy"
     style="display:inline">
    <path
       style="fill:none;stroke:#ff0000;stroke-width:0.03527778;stroke-miterlimit:4;stroke-dasharray:none;stroke-opacity:1"
       d="m 53.974999,180.81791 c -0.296949,-0.0106 -0.34485,0.0682 -0.456819,0.35295 -0.117536,0.29891 -0.10532,0.68594 0.04961,1.57613 0.159017,0.91371 0.513633,1.87584 1.570445,4.26175 0.750705,1.69483 1.364776,3.13189 1.364776,3.19309 0,0.0612 -0.34657,-0.19596 -0.770496,-0.57102 -1.475973,-1.30581 -3.836302,-2.62828 -5.664771,-3.17449 -1.505326,-0.44967 -4.149945,-0.74434 -6.755143,-0.75034 -2.012135,-0.005 -2.499146,0.0378 -3.474723,0.30438 -1.460907,0.39919 -4.013904,1.59653 -5.118034,2.40036 -2.240052,1.63085 -4.134463,4.12541 -4.915979,6.47403 -0.401212,1.20572 -0.494258,4.61956 -0.194302,7.11998 l 0.228409,1.90221 -0.639754,0.68833 c -0.861394,0.92743 -0.904272,1.17713 -0.429948,2.50424 l 0.39429,1.10277 -0.725535,0.70125 c -0.903095,0.87259 -0.918321,1.13251 -0.144696,2.49701 l 0.581361,1.02526 -0.301275,0.35966 c -0.541737,0.64627 -1.144633,1.5762 -1.144633,1.76579 0,0.10209 0.170209,0.33837 0.378272,0.52503 0.365318,0.32774 0.372774,0.36308 0.212908,1.03353 -0.09102,0.38183 -0.165883,0.99621 -0.165883,1.36477 0,0.62989 0.04703,0.71487 0.780314,1.41904 0.532318,0.51121 0.779799,0.85859 0.779799,1.09347 0,0.78895 -2.206451,6.39979 -6.020305,15.30966 -2.218864,5.18369 -3.057811,7.60413 -3.05511,8.80825 0.0014,0.56827 0.07702,0.6987 0.936376,1.61644 l 0.93431,0.99787 -0.248563,0.36742 c -0.238232,0.35195 -1.16772,1.31014 -5.235857,5.39709 -5.105372,5.12897 -10.9759082,12.02614 -11.8581902,13.93196 -0.2967593,0.64105 -0.7168105,3.38638 -0.8826333,5.60173 H 0.10335286 v 23.77116 h 0.87953288 a 9.2170363,8.5626981 0 0 1 -0.0516765,-0.88987 9.2170363,8.5626981 0 0 1 9.21700876,-8.56227 9.2170363,8.5626981 0 0 1 9.217008,8.56227 9.2170363,8.5626981 0 0 1 -0.06046,0.88987 h 0.726053 a 8.8824434,8.5630207 0 0 1 -0.05013,-0.88987 8.8824434,8.5630207 0 0 1 8.882661,-8.56279 8.8824434,8.5630207 0 0 1 8.882147,8.56279 8.8824434,8.5630207 0 0 1 -0.05788,0.88987 h 0.865579 a 9.1333874,8.5627783 0 0 1 -0.05116,-0.88987 9.1333874,8.5627783 0 0 1 9.133292,-8.56279 9.1333874,8.5627783 0 0 1 9.133292,8.56279 9.1333874,8.5627783 0 0 1 -0.05943,0.88987 h 0.894519 a 9.2170363,8.5626981 0 0 1 -0.05168,-0.88987 9.2170363,8.5626981 0 0 1 9.217009,-8.56227 9.2170363,8.5626981 0 0 1 9.217009,8.56227 9.2170363,8.5626981 0 0 1 -0.06046,0.88987 h 0.14211 V 272.01751 H 59.630468 c 0.16792,-0.17076 0.202808,-0.66622 0.192236,-2.68924 -0.01873,-3.57267 -0.145884,-3.87297 -1.936832,-4.56355 -0.526556,-0.20303 -0.957609,-0.43966 -0.957564,-0.52607 3.4e-5,-0.0864 0.140874,-0.49677 0.312642,-0.91208 0.256516,-0.62016 0.313444,-1.03754 0.318844,-2.33423 0.0061,-1.43925 -0.02986,-1.66384 -0.405662,-2.5399 -0.582025,-1.35683 -1.373635,-2.51951 -2.281513,-3.3507 -0.429421,-0.39312 -0.78083,-0.76564 -0.78083,-0.82734 0,-0.13164 0.295055,-0.66084 2.082559,-3.73723 1.390801,-2.39364 1.633413,-2.98843 1.965772,-4.81832 0.276969,-1.52496 0.777791,-6.9638 0.892451,-9.69243 l 0.09405,-2.24327 1.843815,-0.44959 c 2.85686,-0.69613 4.653624,-1.46616 5.908683,-2.53214 l 0.615468,-0.52245 1.859317,0.0656 c 2.27302,0.0806 2.994245,-0.10123 3.942911,-0.99374 0.501666,-0.47196 0.648809,-0.72016 0.727088,-1.22525 0.15467,-0.99839 -0.03191,-1.76303 -0.647507,-2.65048 -0.451101,-0.65033 -0.59981,-1.03464 -0.774628,-2.00505 -0.190569,-1.0588 -0.191495,-1.23726 -0.0072,-1.50946 0.114911,-0.16976 0.277567,-0.89437 0.361217,-1.61024 0.08368,-0.71589 0.245526,-1.6063 0.35967,-1.97869 0.457798,-1.49366 0.164647,-4.14686 -0.64234,-5.81619 -0.236093,-0.48839 -0.526037,-1.29183 -0.644403,-1.78593 -0.286885,-1.19748 -0.954561,-2.29595 -1.708941,-2.81068 -0.335312,-0.22879 -0.676,-0.57634 -0.757061,-0.77257 -0.08109,-0.19626 -0.471214,-1.53098 -0.866613,-2.96571 -1.353876,-4.91269 -1.732775,-6.1816 -2.628781,-8.80153 -1.425284,-4.16761 -2.467972,-6.40652 -4.164087,-8.94157 -0.964107,-1.44097 -2.656149,-3.16171 -3.910872,-3.97702 -1.320996,-0.85838 -2.864355,-1.55911 -3.625617,-1.64641 -0.165902,-0.019 -0.292724,-0.0327 -0.391708,-0.0362 z"
       id="path882"
       inkscape:connector-curvature="0" />
    <path
       style="fill:#ffffff;fill-opacity:1;stroke:#ff0000;stroke-width:0;stroke-miterlimit:4;stroke-dasharray:none;stroke-opacity:1;paint-order:stroke fill markers"
       id="path900"
       d="m 22.690533,298.62728 c 0,0.29341 0,0.58683 0,0.88024 0,0.1442 0,0.2884 0,0.4326 -0.09718,0.30425 -0.426464,1.17667 -0.03691,0.24888 0.0031,-0.007 0.008,-0.0688 0.01013,-0.0952 -0.01201,0.1091 -0.02403,0.21821 -0.03605,0.32731 -0.06937,0.25093 -0.137355,0.49922 -0.273978,0.72422 0.0042,-0.005 0.01551,-0.0195 0.01267,-0.0139 -0.07265,0.14343 -0.16299,0.26443 -0.272961,0.38065 -0.935974,0.90582 -2.21699,-0.41785 -1.281016,-1.32366 v 0 c -0.06008,0.066 -0.216487,0.31493 -0.02355,-0.0148 0.05387,-0.0782 0.01662,-0.0285 -0.04847,0.18 -0.05746,0.10053 0.124911,-0.44588 0.08991,-0.33551 -0.0017,0.0631 0.0036,0.12676 -0.0051,0.18926 -0.0055,0.0391 -0.0055,-0.0789 -0.0048,-0.11841 7.94e-4,-0.0455 0.05731,-1.12458 0.217121,-0.6678 0.0608,0.17379 -0.206614,0.78446 -0.189036,0.51902 0,-0.1442 0,-0.2884 0,-0.43261 0,-0.29341 0,-0.58682 0,-0.88023 0,-1.30252 1.842036,-1.30252 1.842036,0 z"
       inkscape:connector-curvature="0" />
  </g>
</svg>
